<?xml version="1.0" encoding="utf-8"?>
<!-- Generator: Adobe Illustrator 15.0.0, SVG Export Plug-In . SVG Version: 6.00 Build 0)  -->
<!DOCTYPE svg PUBLIC "-//W3C//DTD SVG 1.1//EN" "http://www.w3.org/Graphics/SVG/1.1/DTD/svg11.dtd">
<svg version="1.1" id="Calque_1" xmlns="http://www.w3.org/2000/svg" xmlns:xlink="http://www.w3.org/1999/xlink" x="0px" y="0px"
	 width="100px" height="100px" viewBox="0 0 100 100" enable-background="new 0 0 100 100" xml:space="preserve">
<g>
	<path fill="#FFFFFF" d="M70.628,30.491V20.239H60.376H50.124H39.873H29.621v10.251H19.369v10.251v8.511v1.74v8.512h10.252v10.251
		v10.252h10.251V69.757h5.125v10.252H55.25V69.757h5.126v10.252h10.252V69.757V59.506h10.251v-8.512v-1.74v-8.511V30.491H70.628z
		 M29.621,40.742h15.377v8.511H29.621V40.742z M70.628,49.253H55.25v-8.511h5.126h10.252V49.253z"/>
	<polygon fill="#FFFFFF" points="6.037,0 6.037,6.036 0,6.036 0,12.073 6.037,12.073 12.073,12.073 12.073,6.036 12.073,0 	"/>
	<polygon fill="#FFFFFF" points="100.248,6.036 94.212,6.036 94.212,0 88.176,0 88.176,6.036 88.176,12.073 94.212,12.073 
		100.248,12.073 	"/>
	<polygon fill="#FFFFFF" points="94.212,100.248 94.212,94.212 100.248,94.212 100.248,88.175 94.212,88.175 88.176,88.175 
		88.176,94.212 88.176,100.248 	"/>
	<polygon fill="#FFFFFF" points="0,94.212 6.037,94.212 6.037,100.248 12.073,100.248 12.073,94.212 12.073,88.175 6.037,88.175 
		0,88.175 	"/>
</g>
</svg>
