<?xml version="1.0" encoding="utf-8"?>
<!-- Generator: Adobe Illustrator 15.0.0, SVG Export Plug-In . SVG Version: 6.00 Build 0)  -->
<!DOCTYPE svg PUBLIC "-//W3C//DTD SVG 1.1//EN" "http://www.w3.org/Graphics/SVG/1.1/DTD/svg11.dtd">
<svg version="1.1" id="Calque_1" xmlns="http://www.w3.org/2000/svg" xmlns:xlink="http://www.w3.org/1999/xlink" x="0px" y="0px"
	 width="50px" height="50px" viewBox="0 0 50 50" enable-background="new 0 0 50 50" xml:space="preserve">
<rect x="10.75" y="12.438" fill="#FFFFFF" width="35.708" height="17.811"/>
<g>
	<g>
		<rect x="42.797" y="12.438" fill="#F85898" width="3.661" height="3.637"/>
		<path fill="#F85898" d="M49.902,44.638V23.209h-7.127v7.039h-7.133v-3.559h-3.556V16.075h3.556v-3.627h3.494l0,0H42.8V8.889
			h-3.577V5.33h-7.033V1.803h-14.36V5.33h-7.118v3.559H7.147v3.559H3.584v3.627v7.086H0v7.085v3.629v7.086v3.676v3.559h3.662v-3.559
			h3.485v-3.676h3.563h0.099v3.617h3.46v3.617h7.118v-3.617V43.64v-2.678h7.136v3.616h0.002v3.619h7.117v-3.619h3.459v-3.616h3.674
			v3.676h3.563v3.56H50v-3.56H49.902z M24.961,26.689h-3.568v3.559h-7.02v-3.496h-3.662V16.075h3.662v-3.627h3.456h3.578v3.627
			h3.554V26.689z"/>
	</g>
	<g>
		<rect x="17.893" y="19.666" fill="#0078F8" width="7.085" height="7.085"/>
		<rect x="39.253" y="19.666" fill="#0078F8" width="7.085" height="7.085"/>
	</g>
</g>
</svg>
